<?xml version="1.0" encoding="UTF-8" standalone="no"?>
<svg
   fill="none"
   height="72"
   viewBox="0 0 24 24"
   width="72"
   version="1.1"
   id="svg10"
   sodipodi:docname="research---filled-(24x24)@3x (1).svg"
   inkscape:version="1.4 (e7c3feb1, 2024-10-09)"
   xmlns:inkscape="http://www.inkscape.org/namespaces/inkscape"
   xmlns:sodipodi="http://sodipodi.sourceforge.net/DTD/sodipodi-0.dtd"
   xmlns="http://www.w3.org/2000/svg"
   xmlns:svg="http://www.w3.org/2000/svg">
  <defs
     id="defs10" />
  <sodipodi:namedview
     id="namedview10"
     pagecolor="#ffffff"
     bordercolor="#000000"
     borderopacity="0.25"
     inkscape:showpageshadow="2"
     inkscape:pageopacity="0.0"
     inkscape:pagecheckerboard="0"
     inkscape:deskcolor="#d1d1d1"
     showgrid="false"
     inkscape:zoom="11.222222"
     inkscape:cx="35.955446"
     inkscape:cy="25.574257"
     inkscape:window-width="1920"
     inkscape:window-height="1027"
     inkscape:window-x="0"
     inkscape:window-y="25"
     inkscape:window-maximized="1"
     inkscape:current-layer="svg10" />
  <g
     clip-rule="evenodd"
     fill-rule="evenodd"
     id="g10"
     transform="matrix(1.0519802,0,0,1.0519802,-0.69801981,1.3886139)">
    <path
       d="M 4,21 C 3.44772,21 3,20.5523 3,20 v -6 c 0,-0.5523 0.44772,-1 1,-1 0.55228,0 1,0.4477 1,1 v 6 c 0,0.5523 -0.44772,1 -1,1 z"
       fill="#3071df"
       id="path1" />
    <path
       d="M 8,21 C 7.44772,21 7,20.5523 7,20 V 9 C 7,8.44772 7.44772,8 8,8 8.55228,8 9,8.44772 9,9 v 11 c 0,0.5523 -0.44772,1 -1,1 z"
       fill="#ff7373"
       id="path2" />
    <path
       d="m 12,21 c -0.5523,0 -1,-0.4477 -1,-1 v -8 c 0,-0.5523 0.4477,-1 1,-1 0.5523,0 1,0.4477 1,1 v 8 c 0,0.5523 -0.4477,1 -1,1 z"
       fill="#3071df"
       id="path3" />
    <path
       d="m 16,21 c -0.5523,0 -1,-0.4477 -1,-1 v -3 c 0,-0.5523 0.4477,-1 1,-1 0.5523,0 1,0.4477 1,1 v 3 c 0,0.5523 -0.4477,1 -1,1 z"
       fill="#ff7373"
       id="path4" />
    <path
       d="m 20,21 c -0.5523,0 -1,-0.4477 -1,-1 v -8 c 0,-0.5523 0.4477,-1 1,-1 0.5523,0 1,0.4477 1,1 v 8 c 0,0.5523 -0.4477,1 -1,1 z"
       fill="#3071df"
       id="path5" />
    <path
       d="M 4,8 C 5.10457,8 6,8.89543 6,10 6,11.1046 5.10457,12 4,12 2.89543,12 2,11.1046 2,10 2,8.89543 2.89543,8 4,8 Z"
       fill="#3071df"
       id="path6" />
    <path
       d="M 8,3 C 9.10457,3 10,3.89543 10,5 10,6.10457 9.10457,7 8,7 6.89543,7 6,6.10457 6,5 6,3.89543 6.89543,3 8,3 Z"
       fill="#ff7373"
       id="path7" />
    <path
       d="m 12,6 c 1.1046,0 2,0.89543 2,2 0,1.10457 -0.8954,2 -2,2 -1.1046,0 -2,-0.89543 -2,-2 0,-1.10457 0.8954,-2 2,-2 z"
       fill="#3071df"
       id="path8" />
    <path
       d="m 20,6 c 1.1046,0 2,0.89543 2,2 0,1.10457 -0.8954,2 -2,2 -1.1046,0 -2,-0.89543 -2,-2 0,-1.10457 0.8954,-2 2,-2 z"
       fill="#3071df"
       id="path9" />
    <path
       d="m 16,11 c 1.1046,0 2,0.8954 2,2 0,1.1046 -0.8954,2 -2,2 -1.1046,0 -2,-0.8954 -2,-2 0,-1.1046 0.8954,-2 2,-2 z"
       fill="#ff7373"
       id="path10" />
  </g>
  <path
     stroke-linejoin="round"
     stroke-linecap="round"
     stroke-miterlimit="10"
     stroke-width="0.536758"
     stroke="#2249b3"
     fill="#4382ff"
     d="m 16.114654,0.56210848 h -0.0053 -0.0053 c -1.98601,0 -3.687534,1.58343672 -3.751946,3.49429582 -0.0161,0.5850665 0.15566,1.2238087 0.397202,1.7176263 0,0 0.0053,0.00537 0.0053,0.010735 l 2.882346,5.2387604 c 0.09662,0.182498 0.284483,0.273746 0.472348,0.273746 0.187865,0 0.375731,-0.09125 0.472347,-0.273746 l 2.882392,-5.23876 c 0,-0.00537 0.0053,-0.010735 0.0053,-0.010735 0.241541,-0.4938176 0.413304,-1.1325598 0.397201,-1.7176263 -0.06441,-1.9108591 -1.765935,-3.49429582 -3.75194,-3.49429582 z"
     id="path1-7" />
  <path
     stroke-linejoin="round"
     stroke-linecap="round"
     stroke-miterlimit="10"
     stroke-width="0.536758"
     stroke="#2249b3"
     fill="#8fe4ff"
     d="m 16.109287,5.6613114 c 0.741102,0 1.341895,-0.6007935 1.341895,-1.3418956 0,-0.7411074 -0.600793,-1.3418954 -1.341895,-1.3418954 -0.741103,0 -1.341896,0.600788 -1.341896,1.3418954 0,0.7411021 0.600793,1.3418956 1.341896,1.3418956 z"
     id="path2-9"
     style="fill:#ff7373;fill-opacity:1" />
</svg>
